<svg width="800px" height="500px" xmlns="http://www.w3.org/2000/svg">
    <svg>
      <ellipse fill="lightgrey" rx="50" ry="25" cx="180" cy="230"></ellipse>
      <circle fill="orange" cx="180" cy="150" r="80"></circle>
      <ellipse fill="orange" cx="-55" cy="155" rx="25" ry="50" transform="rotate(-45)"></ellipse>
      <circle fill="white" r="35" cx="210" cy="130"></circle>
      <circle fill="white" r="35" cx="170" cy="130"></circle>
      <circle fill="black" r="10" cx="220" cy="130"></circle>
      <circle fill="black" r="10" cx="180" cy="130"></circle>
      <ellipse fill="red" cx="185" cy="190" rx="15" ry="5"></ellipse>
      <circle  fill="black" r="13" cx="190" cy="160"></circle>
      <polygon points="40 115,70 120,37 140" fill="white"></polygon>
      <polygon points="120 100,170 40,180 80" fill="orange"></polygon>
      <polygon points="140 100,210 40,210 80" fill="orange"></polygon>
      <polygon points="150 70,168 50,175 70" fill="black"></polygon>
      <polygon points="180 70,207 50,207 75" fill="black"></polygon>

      <ellipse fill="lightgrey" rx="50" ry="25" cx="380" cy="230"></ellipse>
      <circle fill="yellow" cx="380" cy="150" r="80"></circle>
      <circle fill="white" r="35" cx="350" cy="130"></circle>
      <circle fill="white" r="35" cx="400" cy="130"></circle>
      <circle  fill="black" r="10" cx="380" cy="130"></circle>
      <circle fill="black" r="10" cx="340" cy="130"></circle>
      <ellipse  fill="red" cx="370" cy="180" rx="5" ry="15"></ellipse>

      
    </svg>